<?xml version="1.0" encoding="utf-8"?>
<!-- Generator: Adobe Illustrator 23.0.2, SVG Export Plug-In . SVG Version: 6.00 Build 0)  -->
<svg version="1.1" id="Layer_1" xmlns="http://www.w3.org/2000/svg" xmlns:xlink="http://www.w3.org/1999/xlink" x="0px" y="0px"
	 viewBox="0 0 200 75" style="enable-background:new 0 0 200 75;" xml:space="preserve">
<style type="text/css">
	.st0{fill:#263238;}
	.st1{font-family:'Calibri';}
	.st2{font-size:13.7031px;}
	.st3{fill:#EC1E24;stroke:#ED1F24;stroke-miterlimit:10;}
	.st4{fill:url(#SVGID_1_);}
	.st5{fill:url(#SVGID_2_);}
	.st6{fill:url(#SVGID_3_);}
	.st7{fill:url(#SVGID_4_);}
	.st8{fill:url(#SVGID_5_);}
	.st9{fill:url(#SVGID_6_);stroke:#FFEC03;stroke-miterlimit:10;}
	.st10{fill:url(#SVGID_7_);}
	.st11{fill:#ED1F24;}
	.st12{font-family:'MyriadPro-Regular';}
	.st13{font-size:18.0988px;}
</style>
<text transform="matrix(1 0 0 1 14.0347 69.6074)" class="st0 st1 st2">Protect your premises from fire</text>
<line class="st3" x1="77.1" y1="33.9" x2="173.8" y2="33.9"/>
<g>
	<g>
		<g>
			<radialGradient id="SVGID_1_" cx="38.8504" cy="31.0324" r="24.549" gradientUnits="userSpaceOnUse">
				<stop  offset="0" style="stop-color:#FFFFFF"/>
				<stop  offset="8.309346e-02" style="stop-color:#FCDADA"/>
				<stop  offset="0.2065" style="stop-color:#F8A9AA"/>
				<stop  offset="0.3331" style="stop-color:#F57E81"/>
				<stop  offset="0.4609" style="stop-color:#F25C5F"/>
				<stop  offset="0.5902" style="stop-color:#F04145"/>
				<stop  offset="0.7216" style="stop-color:#EE2E33"/>
				<stop  offset="0.8565" style="stop-color:#ED2328"/>
				<stop  offset="1" style="stop-color:#ED1F24"/>
			</radialGradient>
			<path class="st4" d="M46.9,53.8c1-1.1,2.1-2.2,3.1-3.3c4.3-5.2,7.6-11,9.5-17.5c0.9-3,1.6-6,1.9-9.1c0.2-1.8,0.2-3.5,0.3-5.3
				c0.1-1.7,0-1.5-1.4-1.8c-6-1.3-11.5-3.6-17-6.2c-0.5-0.3-1.1-0.5-1.6-0.7c-2-0.9-4-0.9-6,0c-2.1,0.9-4.1,1.9-6.2,2.9
				c-3.3,1.5-6.8,2.6-10.3,3.6c-0.9,0.3-1.9,0.6-2.8,0.8c-0.3,0.1-0.4,0.2-0.4,0.5c0.1,1.8,0.2,3.7,0.4,5.5c0.3,2.3,0.6,4.7,1,7
				c0.7,3.6,1.9,7,3.5,10.3c1,2.1,2,4.2,3.4,6c1.7,2.2,3.3,4.4,5.3,6.3c0.6,0.6,1.3,1.2,1.9,1.8c0.1,0.1,0.3,0.2,0.4,0.3
				c-0.1,0.3-0.2,0.2-0.4,0.1c-0.7-0.6-1.4-1.1-2-1.7c-2.2-2.2-4.5-4.4-6.5-6.9c-2.4-3.1-4.2-6.6-5.8-10.3
				c-1.8-4.2-2.9-8.6-3.3-13.2c-0.2-2.3-0.2-4.5-0.3-6.8c0-0.7,0-0.7,0.7-0.9c2.6-0.7,5.2-1.3,7.8-2c3-0.9,5.9-2.3,8.8-3.6
				c1.5-0.7,2.9-1.3,4.4-1.9c2.2-1,4.3-1.1,6.5-0.2C44,8.5,46,9.4,48,10.4c4.3,2.1,8.9,3.5,13.6,4.5c0.7,0.1,1.3,0.3,1.9,0.5
				c0.3,0.1,0.4,0.2,0.4,0.5c-0.2,2.5-0.2,5.1-0.4,7.6c-0.4,5-1.9,9.6-3.9,14.1c-2.2,4.8-5.1,9-8.8,12.8c-1.2,1.2-2.5,2.4-3.8,3.6
				C46.9,53.9,46.9,53.9,46.9,53.8z"/>
			<radialGradient id="SVGID_2_" cx="38.8462" cy="29.3125" r="10.6221" gradientUnits="userSpaceOnUse">
				<stop  offset="0" style="stop-color:#FFFFFF"/>
				<stop  offset="2.049065e-02" style="stop-color:#FDF4F4"/>
				<stop  offset="0.1353" style="stop-color:#F4BCBD"/>
				<stop  offset="0.2536" style="stop-color:#EB8A8C"/>
				<stop  offset="0.3728" style="stop-color:#E45F62"/>
				<stop  offset="0.493" style="stop-color:#DE3D41"/>
				<stop  offset="0.6147" style="stop-color:#DA2226"/>
				<stop  offset="0.7382" style="stop-color:#D70F14"/>
				<stop  offset="0.865" style="stop-color:#D50409"/>
				<stop  offset="1" style="stop-color:#D40005"/>
			</radialGradient>
			<path class="st5" d="M32.7,40.6c-3.1-2.1-4.3-4.9-3.4-8.3c0.3-1.3,0.9-2.4,1.4-3.6c0.5-1.2,1.1-2.3,1.2-3.7
				c0.7,1.2,0.9,2.5,1,3.9c1.2-1.7,2.4-3.3,3.2-5c0.8-1.8,1.3-3.7,1.1-5.8c0.3,0.2,0.6,0.2,0.8,0.4c1.9,1.1,3.2,2.7,4.1,4.6
				c0.5,1.1,0.9,2.3,1.4,3.5c0,0.1,0.1,0.2,0.1,0.3c1-1.3,0.9-2.7,0.5-4.1c0,0,0.1,0,0.1-0.1c0.7,0.8,1.4,1.6,2,2.4
				c1.3,1.8,2.2,3.8,2.5,6.1c0.4,2.9-0.4,5.4-2.3,7.6c-0.5,0.6-1.1,1-1.6,1.5c0.1-0.1,0.1-0.3,0.2-0.4c0.7-1.3,1.1-2.6,1-4.1
				c-0.2-2.2-1-4.2-2.4-5.9c-0.4-0.5-0.8-1.1-1.5-1.4c0.3,1,0.6,1.9,0.2,2.8c-0.4-1-0.8-2-1.3-2.9c-0.7-1.3-1.6-2.3-2.9-3
				c-0.1-0.1-0.3-0.1-0.6-0.2c0.2,1.4-0.1,2.7-0.5,4c-0.5,1.3-1.2,2.4-2,3.6c-0.2-1.1-0.4-2-0.9-2.8c-0.2,0.7-0.3,1.5-0.6,2.3
				c-0.4,1.1-0.9,2.1-1.2,3.2c-0.5,1.7-0.5,3.3,0.5,4.8C32.7,40.5,32.7,40.6,32.7,40.6z"/>
			<radialGradient id="SVGID_3_" cx="38.8466" cy="34.3733" r="8.1503" gradientUnits="userSpaceOnUse">
				<stop  offset="0" style="stop-color:#FFFFFF"/>
				<stop  offset="2.049065e-02" style="stop-color:#FDF4F4"/>
				<stop  offset="0.1353" style="stop-color:#F4BCBD"/>
				<stop  offset="0.2536" style="stop-color:#EB8A8C"/>
				<stop  offset="0.3728" style="stop-color:#E45F62"/>
				<stop  offset="0.493" style="stop-color:#DE3D41"/>
				<stop  offset="0.6147" style="stop-color:#DA2226"/>
				<stop  offset="0.7382" style="stop-color:#D70F14"/>
				<stop  offset="0.865" style="stop-color:#D50409"/>
				<stop  offset="1" style="stop-color:#D40005"/>
			</radialGradient>
			<path class="st6" d="M32.7,40.6c0-0.1,0-0.2-0.1-0.2c-1-1.5-1.1-3.2-0.5-4.8c0.3-1.1,0.9-2.1,1.2-3.2c0.3-0.8,0.4-1.6,0.6-2.3
				c0.6,0.7,0.8,1.7,0.9,2.8c0.8-1.2,1.5-2.3,2-3.6c0.5-1.3,0.8-2.6,0.5-4c0.2,0.1,0.4,0.1,0.6,0.2c1.3,0.7,2.3,1.7,2.9,3
				c0.5,0.9,0.9,1.9,1.3,2.9c0.4-0.9,0.1-1.8-0.2-2.8c0.8,0.3,1.1,0.9,1.5,1.4c1.3,1.7,2.2,3.7,2.4,5.9c0.1,1.5-0.3,2.8-1,4.1
				c-0.1,0.1-0.1,0.3-0.2,0.4c-0.8,1-1.7,1.9-2.8,2.6c-0.2,0.1-0.5,0.3-0.8,0.5c0-0.3,0-0.5,0.1-0.7c0.2-0.8,0.5-1.5,0.6-2.3
				c0.2-2.5-0.5-4.8-2.2-6.7c-0.1-0.1-0.2-0.2-0.3-0.3c0,1.8-0.5,3.4-1.8,4.9c0-0.9,0.2-1.7-0.1-2.3c-0.5,0.9-0.9,1.8-1.4,2.8
				c-0.6,1.2-0.6,2.4-0.2,3.6c0.1,0.4,0.2,0.8,0.4,1.2c-1.1-0.8-2.2-1.4-3-2.4C33,40.9,32.9,40.8,32.7,40.6
				C32.8,40.7,32.7,40.7,32.7,40.6L32.7,40.6z M35.2,42.3C35.3,42.3,35.3,42.3,35.2,42.3C35.3,42.3,35.3,42.2,35.2,42.3
				c0-0.1,0-0.2,0-0.3c-0.4-1.4-0.1-2.8,0.6-4.1c0.5-0.8,0.8-1.7,1.1-2.6c0.1-0.2,0.2-0.5,0.2-0.7c0,0,0.1,0,0.1,0
				c0.2,0.7,0.5,1.3,0.7,2c0.7-1.3,0.8-2.7,0.7-4.2c3.1,2.6,4,6,3.1,9.9c0.1,0,0.2-0.1,0.2-0.1c0.6-0.6,1.2-1.1,1.8-1.7
				c1.1-1.2,1.6-2.7,1.6-4.4c0-1.7-0.6-3.3-1.5-4.8c-0.3-0.5-0.7-1-1.1-1.6c0,0-0.1,0-0.1,0c0,1-0.1,1.9-0.8,2.5
				c-0.5-1.2-0.9-2.4-1.5-3.6c-0.6-1.2-1.5-2.1-2.7-2.9c0,3.2-1.6,5.7-3.4,8.1c-0.1-0.9-0.2-1.7-0.4-2.5c-0.5,1.2-1,2.3-1.4,3.4
				C31.5,38.1,32.4,40.5,35.2,42.3z"/>
			<radialGradient id="SVGID_4_" cx="46.3843" cy="54.3639" r="0.5549" gradientUnits="userSpaceOnUse">
				<stop  offset="0" style="stop-color:#FFFFFF"/>
				<stop  offset="2.049065e-02" style="stop-color:#FDF4F4"/>
				<stop  offset="0.1353" style="stop-color:#F4BCBD"/>
				<stop  offset="0.2536" style="stop-color:#EB8A8C"/>
				<stop  offset="0.3728" style="stop-color:#E45F62"/>
				<stop  offset="0.493" style="stop-color:#DE3D41"/>
				<stop  offset="0.6147" style="stop-color:#DA2226"/>
				<stop  offset="0.7382" style="stop-color:#D70F14"/>
				<stop  offset="0.865" style="stop-color:#D50409"/>
				<stop  offset="1" style="stop-color:#D40005"/>
			</radialGradient>
			<path class="st7" d="M46.9,53.8c0,0,0.1,0.1,0.1,0.1c-0.4,0.3-0.7,0.6-1.1,0.9c0,0-0.1-0.1-0.1-0.1
				C46.1,54.4,46.5,54.1,46.9,53.8z"/>
			<radialGradient id="SVGID_5_" cx="32.7389" cy="40.6757" r="5.076966e-02" gradientUnits="userSpaceOnUse">
				<stop  offset="0" style="stop-color:#FFFFFF"/>
				<stop  offset="2.049065e-02" style="stop-color:#FDF4F4"/>
				<stop  offset="0.1353" style="stop-color:#F4BCBD"/>
				<stop  offset="0.2536" style="stop-color:#EB8A8C"/>
				<stop  offset="0.3728" style="stop-color:#E45F62"/>
				<stop  offset="0.493" style="stop-color:#DE3D41"/>
				<stop  offset="0.6147" style="stop-color:#DA2226"/>
				<stop  offset="0.7382" style="stop-color:#D70F14"/>
				<stop  offset="0.865" style="stop-color:#D50409"/>
				<stop  offset="1" style="stop-color:#D40005"/>
			</radialGradient>
			<path class="st8" d="M32.7,40.6c0,0,0.1,0.1,0.1,0.1C32.8,40.7,32.7,40.7,32.7,40.6z"/>
			<radialGradient id="SVGID_6_" cx="38.8575" cy="34.0917" r="7.4437" gradientUnits="userSpaceOnUse">
				<stop  offset="0" style="stop-color:#FFFFFF"/>
				<stop  offset="2.049065e-02" style="stop-color:#FDF4F4"/>
				<stop  offset="0.1353" style="stop-color:#F4BCBD"/>
				<stop  offset="0.2536" style="stop-color:#EB8A8C"/>
				<stop  offset="0.3728" style="stop-color:#E45F62"/>
				<stop  offset="0.493" style="stop-color:#DE3D41"/>
				<stop  offset="0.6147" style="stop-color:#DA2226"/>
				<stop  offset="0.7382" style="stop-color:#D70F14"/>
				<stop  offset="0.865" style="stop-color:#D50409"/>
				<stop  offset="1" style="stop-color:#D40005"/>
			</radialGradient>
			<path class="st9" d="M35.2,42.3c-2.8-1.8-3.7-4.2-2.5-7.4c0.4-1.1,0.9-2.2,1.4-3.4c0.1,0.9,0.2,1.7,0.4,2.5
				c1.7-2.5,3.4-4.9,3.4-8.1c1.2,0.7,2.1,1.7,2.7,2.9c0.6,1.2,1,2.4,1.5,3.6c0.7-0.6,0.8-1.5,0.8-2.5c0,0,0.1,0,0.1,0
				c0.4,0.5,0.7,1,1.1,1.6c0.9,1.5,1.4,3,1.5,4.8c0,1.6-0.5,3.1-1.6,4.4c-0.5,0.6-1.2,1.1-1.8,1.7c0,0-0.1,0.1-0.2,0.1
				c0.9-3.9,0-7.3-3.1-9.9c0,1.5,0,2.9-0.7,4.2c-0.2-0.7-0.5-1.3-0.7-2c0,0-0.1,0-0.1,0c-0.1,0.2-0.1,0.5-0.2,0.7
				c-0.4,0.9-0.7,1.8-1.1,2.6c-0.7,1.3-1,2.6-0.6,4.1C35.3,42,35.3,42.1,35.2,42.3C35.3,42.2,35.3,42.2,35.2,42.3z"/>
			<radialGradient id="SVGID_7_" cx="35.2709" cy="42.2625" r="4.147707e-02" gradientUnits="userSpaceOnUse">
				<stop  offset="0" style="stop-color:#FFFFFF"/>
				<stop  offset="2.049065e-02" style="stop-color:#FDF4F4"/>
				<stop  offset="0.1353" style="stop-color:#F4BCBD"/>
				<stop  offset="0.2536" style="stop-color:#EB8A8C"/>
				<stop  offset="0.3728" style="stop-color:#E45F62"/>
				<stop  offset="0.493" style="stop-color:#DE3D41"/>
				<stop  offset="0.6147" style="stop-color:#DA2226"/>
				<stop  offset="0.7382" style="stop-color:#D70F14"/>
				<stop  offset="0.865" style="stop-color:#D50409"/>
				<stop  offset="1" style="stop-color:#D40005"/>
			</radialGradient>
			<path class="st10" d="M35.3,42.2C35.3,42.2,35.3,42.3,35.3,42.2C35.3,42.3,35.3,42.3,35.3,42.2C35.3,42.2,35.3,42.2,35.3,42.2z"
				/>
		</g>
	</g>
</g>
<g>
	<text transform="matrix(1 0 0 1 74.1978 29.1489)"><tspan x="0" y="0" class="st11 st12 st13">Fire Risk</tspan><tspan x="0" y="21.7" class="st11 st12 st13">Assessment </tspan></text>
</g>
</svg>
